<?xml version="1.0" encoding="UTF-8" standalone="no"?>
<!DOCTYPE svg PUBLIC "-//W3C//DTD SVG 1.1//EN"
 "http://www.w3.org/Graphics/SVG/1.1/DTD/svg11.dtd">
<!-- Generated by graphviz version 2.43.0 (0)
 -->
<!-- Title: G Pages: 1 -->
<svg width="635pt" height="720pt"
 viewBox="0.00 0.00 381.18 432.20" xmlns="http://www.w3.org/2000/svg" xmlns:xlink="http://www.w3.org/1999/xlink">
<g id="graph0" class="graph" transform="scale(1.67 1.67) rotate(0) translate(21.6 410.6)">
<title>G</title>
<polygon fill="white" stroke="transparent" points="-21.6,21.6 -21.6,-410.6 359.58,-410.6 359.58,21.6 -21.6,21.6"/>
<!-- a -->
<g id="node1" class="node">
<title>a</title>
<path fill="#d6eaf8" stroke="#34495e" stroke-width="1.3" d="M192.49,-389C192.49,-389 145.49,-389 145.49,-389 139.49,-389 133.49,-383 133.49,-377 133.49,-377 133.49,-365 133.49,-365 133.49,-359 139.49,-353 145.49,-353 145.49,-353 192.49,-353 192.49,-353 198.49,-353 204.49,-359 204.49,-365 204.49,-365 204.49,-377 204.49,-377 204.49,-383 198.49,-389 192.49,-389"/>
<text text-anchor="middle" x="168.99" y="-368.2" font-family="DejaVu Sans" font-size="11.00">Inicio / Fin</text>
</g>
<!-- b -->
<g id="node2" class="node">
<title>b</title>
<polygon fill="white" stroke="#34495e" stroke-width="1.3" points="261.99,-324 75.99,-324 75.99,-288 261.99,-288 261.99,-324"/>
<text text-anchor="middle" x="168.99" y="-309.2" font-family="DejaVu Sans" font-size="11.00">Proceso: una acción</text>
<text text-anchor="middle" x="168.99" y="-297.2" font-family="DejaVu Sans" font-size="11.00">(asignar, llamar a una función)</text>
</g>
<!-- a&#45;&gt;b -->
<!-- c -->
<g id="node3" class="node">
<title>c</title>
<polygon fill="#fcf3cf" stroke="#34495e" stroke-width="1.3" points="168.99,-259 112.4,-241 168.99,-223 225.58,-241 168.99,-259"/>
<text text-anchor="middle" x="168.99" y="-238.2" font-family="DejaVu Sans" font-size="11.00">¿Condición?</text>
</g>
<!-- b&#45;&gt;c -->
<!-- d -->
<g id="node4" class="node">
<title>d</title>
<polygon fill="#d5f5e3" stroke="#34495e" stroke-width="1.3" points="337.97,-194 69.16,-194 0.01,-130 268.82,-130 337.97,-194"/>
<text text-anchor="middle" x="168.99" y="-165.2" font-family="DejaVu Sans" font-size="11.00">Entrada / salida</text>
<text text-anchor="middle" x="168.99" y="-153.2" font-family="DejaVu Sans" font-size="11.00">(teclado, pantalla, fichero)</text>
</g>
<!-- c&#45;&gt;d -->
<!-- f -->
<g id="node5" class="node">
<title>f</title>
<polygon fill="#fadbd8" stroke="#34495e" stroke-width="1.3" points="223.99,-101 113.99,-101 113.99,-65 223.99,-65 223.99,-101"/>
<text text-anchor="middle" x="168.99" y="-80.2" font-family="DejaVu Sans" font-size="11.00">Mensaje de error</text>
</g>
<!-- d&#45;&gt;f -->
<!-- g -->
<g id="node6" class="node">
<title>g</title>
<path fill="#e8daef" stroke="#34495e" stroke-width="1.3" d="M218.49,-36C218.49,-36 119.49,-36 119.49,-36 113.49,-36 107.49,-30 107.49,-24 107.49,-24 107.49,-12 107.49,-12 107.49,-6 113.49,0 119.49,0 119.49,0 218.49,0 218.49,0 224.49,0 230.49,-6 230.49,-12 230.49,-12 230.49,-24 230.49,-24 230.49,-30 224.49,-36 218.49,-36"/>
<text text-anchor="middle" x="168.99" y="-21.2" font-family="DejaVu Sans" font-size="11.00">return (devuelve</text>
<text text-anchor="middle" x="168.99" y="-9.2" font-family="DejaVu Sans" font-size="11.00">un valor y termina)</text>
</g>
<!-- f&#45;&gt;g -->
</g>
</svg>
